<svg width="191" height="38" viewBox="0 0 191 38" fill="none" xmlns="http://www.w3.org/2000/svg">
<path d="M5.58677 37.424C5.01077 37.424 4.56677 37.112 4.25477 36.488C1.44677 30.704 0.0427657 24.908 0.0427657 19.1C0.0427657 16.196 0.390766 13.304 1.08677 10.424C1.78277 7.544 2.83877 4.664 4.25477 1.784C4.54277 1.16 4.98677 0.847998 5.58677 0.847998C5.97077 0.847998 6.29477 0.979998 6.55877 1.244C6.82277 1.508 6.95477 1.832 6.95477 2.216C6.95477 2.504 6.88277 2.768 6.73877 3.008C4.09877 8.36 2.77877 13.736 2.77877 19.136C2.77877 21.824 3.11477 24.524 3.78677 27.236C4.45877 29.948 5.45477 32.636 6.77477 35.3C6.91877 35.588 6.99077 35.84 6.99077 36.056C6.99077 36.44 6.85877 36.764 6.59477 37.028C6.33077 37.292 5.99477 37.424 5.58677 37.424ZM30.0966 29.18C28.1766 29.18 26.4606 28.748 24.9486 27.884C23.4366 27.02 22.2486 25.832 21.3846 24.32C20.5206 22.808 20.0886 21.092 20.0886 19.172C20.0886 17.228 20.5206 15.5 21.3846 13.988C22.2486 12.476 23.4366 11.288 24.9486 10.424C26.4606 9.56 28.1766 9.128 30.0966 9.128C32.0166 9.128 33.7206 9.56 35.2086 10.424C36.7206 11.288 37.9086 12.476 38.7726 13.988C39.6366 15.5 40.0806 17.228 40.1046 19.172C40.1046 21.092 39.6606 22.808 38.7726 24.32C37.9086 25.832 36.7206 27.02 35.2086 27.884C33.7206 28.748 32.0166 29.18 30.0966 29.18ZM30.0966 26.66C31.4886 26.66 32.7366 26.336 33.8406 25.688C34.9446 25.04 35.8086 24.152 36.4326 23.024C37.0566 21.896 37.3686 20.612 37.3686 19.172C37.3686 17.732 37.0566 16.448 36.4326 15.32C35.8086 14.168 34.9446 13.268 33.8406 12.62C32.7366 11.972 31.4886 11.648 30.0966 11.648C28.7046 11.648 27.4566 11.972 26.3526 12.62C25.2486 13.268 24.3726 14.168 23.7246 15.32C23.1006 16.448 22.7886 17.732 22.7886 19.172C22.7886 20.612 23.1006 21.896 23.7246 23.024C24.3726 24.152 25.2486 25.04 26.3526 25.688C27.4566 26.336 28.7046 26.66 30.0966 26.66ZM46.8999 29C46.4679 29 46.1199 28.88 45.8559 28.64C45.6159 28.376 45.4959 28.04 45.4959 27.632V10.712C45.4959 10.28 45.6159 9.944 45.8559 9.704C46.1199 9.44 46.4679 9.308 46.8999 9.308C47.3079 9.308 47.6319 9.44 47.8719 9.704C48.1359 9.944 48.2679 10.28 48.2679 10.712V11.936C49.0359 11.048 49.9839 10.352 51.1119 9.848C52.2639 9.344 53.4999 9.092 54.8199 9.092C56.5239 9.092 58.0479 9.452 59.3919 10.172C60.7359 10.868 61.7919 11.9 62.5599 13.268C63.3519 14.636 63.7479 16.304 63.7479 18.272V27.632C63.7479 28.016 63.6159 28.34 63.3519 28.604C63.0879 28.868 62.7639 29 62.3799 29C61.9719 29 61.6359 28.868 61.3719 28.604C61.1079 28.34 60.9759 28.016 60.9759 27.632V18.272C60.9759 16.04 60.3519 14.396 59.1039 13.34C57.8799 12.26 56.3559 11.72 54.5319 11.72C53.3559 11.72 52.2879 11.948 51.3279 12.404C50.3919 12.86 49.6479 13.484 49.0959 14.276C48.5439 15.068 48.2679 15.968 48.2679 16.976V27.632C48.2679 28.04 48.1359 28.376 47.8719 28.64C47.6319 28.88 47.3079 29 46.8999 29ZM88.11 29C86.838 29 85.698 28.7 84.69 28.1C83.706 27.5 82.926 26.684 82.35 25.652C81.774 24.596 81.486 23.396 81.486 22.052V12.44H79.146C78.786 12.44 78.486 12.332 78.246 12.116C78.006 11.876 77.886 11.588 77.886 11.252C77.886 10.892 78.006 10.604 78.246 10.388C78.486 10.148 78.786 10.028 79.146 10.028H81.486V4.448C81.486 4.04 81.606 3.704 81.846 3.44C82.11 3.176 82.446 3.044 82.854 3.044C83.262 3.044 83.598 3.176 83.862 3.44C84.126 3.704 84.258 4.04 84.258 4.448V10.028H88.326C88.686 10.028 88.986 10.148 89.226 10.388C89.466 10.604 89.586 10.892 89.586 11.252C89.586 11.588 89.466 11.876 89.226 12.116C88.986 12.332 88.686 12.44 88.326 12.44H84.258V22.052C84.258 23.276 84.618 24.284 85.338 25.076C86.058 25.844 86.982 26.228 88.11 26.228H89.082C89.466 26.228 89.778 26.36 90.018 26.624C90.258 26.888 90.378 27.224 90.378 27.632C90.378 28.04 90.234 28.376 89.946 28.64C89.658 28.88 89.298 29 88.866 29H88.11ZM96.2584 29C95.3464 29 94.8904 28.544 94.8904 27.632V10.676C94.8904 9.764 95.3464 9.308 96.2584 9.308C97.1704 9.308 97.6264 9.764 97.6264 10.676V12.224C98.3464 11.264 99.2344 10.508 100.29 9.956C101.346 9.38 102.51 9.092 103.782 9.092C104.886 9.092 105.738 9.248 106.338 9.56C106.938 9.872 107.166 10.328 107.022 10.928C106.902 11.48 106.614 11.768 106.158 11.792C105.726 11.792 105.21 11.768 104.61 11.72C103.266 11.6 102.066 11.744 101.01 12.152C99.9784 12.536 99.1504 13.136 98.5264 13.952C97.9264 14.768 97.6264 15.74 97.6264 16.868V27.632C97.6264 28.544 97.1704 29 96.2584 29ZM118.613 29.18C116.765 29.18 115.109 28.748 113.645 27.884C112.181 26.996 111.017 25.796 110.153 24.284C109.313 22.772 108.893 21.068 108.893 19.172C108.893 17.252 109.325 15.536 110.189 14.024C111.077 12.512 112.277 11.324 113.789 10.46C115.301 9.572 117.005 9.128 118.901 9.128C120.797 9.128 122.489 9.572 123.977 10.46C125.489 11.324 126.677 12.512 127.541 14.024C128.429 15.536 128.885 17.252 128.909 19.172V27.632C128.909 28.04 128.777 28.376 128.513 28.64C128.249 28.88 127.913 29 127.505 29C127.097 29 126.761 28.88 126.497 28.64C126.233 28.376 126.101 28.04 126.101 27.632V25.436C125.285 26.588 124.229 27.5 122.933 28.172C121.637 28.844 120.197 29.18 118.613 29.18ZM118.901 26.66C120.293 26.66 121.529 26.336 122.609 25.688C123.713 25.04 124.577 24.152 125.201 23.024C125.849 21.872 126.173 20.588 126.173 19.172C126.173 17.732 125.849 16.448 125.201 15.32C124.577 14.192 123.713 13.304 122.609 12.656C121.529 11.984 120.293 11.648 118.901 11.648C117.533 11.648 116.297 11.984 115.193 12.656C114.089 13.304 113.213 14.192 112.565 15.32C111.917 16.448 111.593 17.732 111.593 19.172C111.593 20.588 111.917 21.872 112.565 23.024C113.213 24.152 114.089 25.04 115.193 25.688C116.297 26.336 117.533 26.66 118.901 26.66ZM143.085 29.18C141.189 29.18 139.497 28.748 138.009 27.884C136.545 26.996 135.381 25.796 134.517 24.284C133.677 22.772 133.257 21.068 133.257 19.172C133.257 17.252 133.665 15.536 134.481 14.024C135.297 12.512 136.413 11.324 137.829 10.46C139.245 9.572 140.877 9.128 142.725 9.128C145.725 9.128 148.161 10.28 150.033 12.584C150.297 12.872 150.393 13.184 150.321 13.52C150.249 13.832 150.045 14.108 149.709 14.348C149.445 14.54 149.145 14.612 148.809 14.564C148.497 14.492 148.221 14.312 147.981 14.024C146.589 12.44 144.837 11.648 142.725 11.648C141.381 11.648 140.193 11.972 139.161 12.62C138.153 13.268 137.361 14.156 136.785 15.284C136.233 16.412 135.957 17.708 135.957 19.172C135.957 20.612 136.257 21.896 136.857 23.024C137.457 24.152 138.297 25.04 139.377 25.688C140.457 26.336 141.693 26.66 143.085 26.66C145.005 26.66 146.553 26.144 147.729 25.112C148.017 24.872 148.317 24.74 148.629 24.716C148.941 24.692 149.229 24.788 149.493 25.004C149.781 25.268 149.937 25.568 149.961 25.904C150.009 26.24 149.901 26.528 149.637 26.768C147.885 28.376 145.701 29.18 143.085 29.18ZM157.114 29C156.706 29 156.37 28.88 156.106 28.64C155.866 28.376 155.746 28.04 155.746 27.632V2.252C155.746 1.844 155.866 1.52 156.106 1.28C156.37 1.016 156.706 0.883999 157.114 0.883999C157.522 0.883999 157.846 1.016 158.086 1.28C158.35 1.52 158.482 1.844 158.482 2.252V18.632L168.634 9.452C169.258 8.9 169.846 8.924 170.398 9.524C170.662 9.812 170.782 10.124 170.758 10.46C170.758 10.772 170.614 11.048 170.326 11.288L163.126 17.804L170.614 27.02C171.142 27.668 171.082 28.268 170.434 28.82C170.122 29.084 169.798 29.192 169.462 29.144C169.126 29.12 168.838 28.952 168.598 28.64L161.182 19.532L158.482 22.016V27.632C158.482 28.04 158.35 28.376 158.086 28.64C157.846 28.88 157.522 29 157.114 29ZM185.418 37.424C185.034 37.424 184.71 37.292 184.446 37.028C184.182 36.764 184.05 36.44 184.05 36.056C184.05 35.84 184.11 35.588 184.23 35.3C185.55 32.636 186.546 29.948 187.218 27.236C187.914 24.524 188.262 21.824 188.262 19.136C188.262 13.736 186.93 8.36 184.266 3.008C184.146 2.768 184.074 2.504 184.05 2.216C184.05 1.832 184.182 1.508 184.446 1.244C184.734 0.979998 185.058 0.847998 185.418 0.847998C186.042 0.847998 186.498 1.16 186.786 1.784C188.202 4.664 189.258 7.544 189.954 10.424C190.65 13.304 190.998 16.196 190.998 19.1C190.998 24.908 189.594 30.704 186.786 36.488C186.45 37.112 185.994 37.424 185.418 37.424Z" fill="#679289"/>
</svg>
